# xmcd CD database file
#
# Track frame offsets:
#	150
#	12703
#	23780
#	34735
#	50891
#	60821
#	79759
#	94165
#	104740
#	115890
#	128728
#	145638
#	159537
#	172554
#	184712
#
# Disc length: 2588 seconds
#
# Revision: 0
# Processed by: cddbd v1.5.1PL2 Copyright (c) Steve Scherf et al.
# Submitted via: CDex 1.51
#
DISCID=be0a1a0f
DTITLE=Gattani Sisters - By request
DYEAR=2000
DGENRE=Country
TTITLE0=The Crush
TTITLE1=Cotton Fields
TTITLE2=My Shoes Keep Walking Back To Me
TTITLE3=Lay Down Beside Me
TTITLE4=Oh Lonesome Me
TTITLE5=Back Home Again
TTITLE6=Put Another Log On The Fire
TTITLE7=Walk Right Back
TTITLE8=The Queensland Song
TTITLE9=Take These Chains From My Heart
TTITLE10=Clancy Of The Overflow
TTITLE11=I'm Sorry
TTITLE12=If You Love Me
TTITLE13=I Can't Help It If I'm Still In Love With You
TTITLE14=Jambalaya
EXTD=YEAR: 2000
EXTT0=
EXTT1=
EXTT2=
EXTT3=
EXTT4=
EXTT5=
EXTT6=
EXTT7=
EXTT8=
EXTT9=
EXTT10=
EXTT11=
EXTT12=
EXTT13=
EXTT14=
PLAYORDER=
